# Blender 5.1.2
# www.blender.org
mtllib bowlingpin.mtl
o Cube
v 0.030879 0.002016 -0.017796
v 0.029852 0.330404 -0.017204
v 0.012370 -0.001539 -0.007129
v 0.012370 0.339886 -0.007129
v 0.049365 0.145467 -0.028449
v 0.027085 0.229665 -0.015609
v 0.035914 0.312038 -0.020697
v 0.056297 0.079076 -0.032444
v 0.056707 0.113721 -0.032681
v 0.041020 0.026322 -0.023640
v 0.017868 0.002016 -0.030837
v 0.017274 0.330404 -0.029811
v 0.007158 -0.001539 -0.012353
v 0.007158 0.339886 -0.012353
v 0.028565 0.145467 -0.049298
v 0.015673 0.229665 -0.027048
v 0.020782 0.312038 -0.035865
v 0.032576 0.079076 -0.056220
v 0.032814 0.113721 -0.056630
v 0.023737 0.026322 -0.040965
v 0.000084 0.002016 -0.035640
v 0.000081 0.330404 -0.034454
v 0.000034 -0.001539 -0.014277
v 0.000034 0.339886 -0.014277
v 0.000134 0.145467 -0.056975
v 0.000073 0.229665 -0.031261
v 0.000097 0.312038 -0.041451
v 0.000152 0.079076 -0.064976
v 0.000154 0.113721 -0.065450
v 0.000111 0.026322 -0.047345
v -0.017723 0.002016 -0.030921
v -0.017134 0.330404 -0.029892
v -0.007100 -0.001539 -0.012387
v -0.007100 0.339886 -0.012387
v -0.028333 0.145467 -0.049431
v -0.015546 0.229665 -0.027121
v -0.020613 0.312038 -0.035962
v -0.032312 0.079076 -0.056373
v -0.032547 0.113721 -0.056783
v -0.023544 0.026322 -0.041076
v -0.030795 0.002016 -0.017940
v -0.029771 0.330404 -0.017344
v -0.012336 -0.001539 -0.007187
v -0.012336 0.339886 -0.007187
v -0.049230 0.145467 -0.028681
v -0.027011 0.229665 -0.015736
v -0.035816 0.312038 -0.020866
v -0.056144 0.079076 -0.032708
v -0.056553 0.113721 -0.032946
v -0.040909 0.026322 -0.023833
v -0.035639 0.002016 -0.000167
v -0.034454 0.330404 -0.000162
v -0.014277 -0.001539 -0.000067
v -0.014277 0.339886 -0.000067
v -0.056975 0.145467 -0.000267
v -0.031260 0.229665 -0.000147
v -0.041451 0.312038 -0.000195
v -0.064976 0.079076 -0.000305
v -0.065449 0.113721 -0.000307
v -0.047344 0.026322 -0.000222
v -0.030962 0.002016 0.017651
v -0.029932 0.330404 0.017064
v -0.012403 -0.001539 0.007071
v -0.012403 0.339886 0.007071
v -0.049497 0.145467 0.028217
v -0.027158 0.229665 0.015482
v -0.036011 0.312038 0.020529
v -0.056448 0.079076 0.032180
v -0.056860 0.113721 0.032414
v -0.041131 0.026322 0.023448
v -0.018013 0.002016 0.030753
v -0.017414 0.330404 0.029730
v -0.007216 -0.001539 0.012319
v -0.007216 0.339886 0.012319
v -0.028796 0.145467 0.049163
v -0.015799 0.229665 0.026974
v -0.020950 0.312038 0.035767
v -0.032840 0.079076 0.056067
v -0.033079 0.113721 0.056475
v -0.023929 0.026322 0.040853
v -0.000251 0.002016 0.035639
v -0.000243 0.330404 0.034454
v -0.000101 -0.001539 0.014277
v -0.000101 0.339886 0.014277
v -0.000401 0.145467 0.056974
v -0.000220 0.229665 0.031260
v -0.000292 0.312038 0.041450
v -0.000457 0.079076 0.064975
v -0.000461 0.113721 0.065448
v -0.000333 0.026322 0.047344
v 0.017578 0.002016 0.031003
v 0.016993 0.330404 0.029972
v 0.007042 -0.001539 0.012420
v 0.007042 0.339886 0.012420
v 0.028101 0.145467 0.049564
v 0.015418 0.229665 0.027194
v 0.020444 0.312038 0.036059
v 0.032047 0.079076 0.056524
v 0.032281 0.113721 0.056936
v 0.023351 0.026322 0.041186
v 0.030710 0.002016 0.018085
v 0.029689 0.330404 0.017483
v 0.012302 -0.001539 0.007245
v 0.012302 0.339886 0.007245
v 0.049095 0.145467 0.028911
v 0.026937 0.229665 0.015863
v 0.035718 0.312038 0.021034
v 0.055990 0.079076 0.032971
v 0.056398 0.113721 0.033211
v 0.040797 0.026322 0.024024
v 0.035638 0.002016 0.000335
v 0.034453 0.330404 0.000323
v 0.014276 -0.001539 0.000134
v 0.014276 0.339886 0.000134
v 0.056973 0.145467 0.000535
v 0.031259 0.229665 0.000293
v 0.041449 0.312038 0.000389
v 0.064974 0.079076 0.000610
v 0.065447 0.113721 0.000614
v 0.047343 0.026322 0.000444
vn 0.9671 -0.0132 -0.2539
vn 0.9278 0.2826 -0.2436
vn 0.8772 -0.4214 -0.2303
vn 0.9367 0.2494 -0.2459
vn 0.9604 -0.1185 -0.2521
vn 0.1644 -0.9854 -0.0432
vn 0.9206 -0.3069 -0.2417
vn 0.9078 0.3450 -0.2383
vn 0.4236 0.8990 -0.1112
vn 0.6419 -0.4218 -0.6404
vn 0.6855 0.2497 -0.6839
vn 0.7029 -0.1187 -0.7013
vn 0.1202 -0.9855 -0.1199
vn 0.6737 -0.3073 -0.6721
vn 0.6644 0.3454 -0.6628
vn 0.3097 0.8992 -0.3090
vn 0.7079 -0.0132 -0.7062
vn 0.6790 0.2830 -0.6774
vn 0.2447 0.3454 -0.9060
vn 0.1141 0.8992 -0.4223
vn 0.2607 -0.0132 -0.9653
vn 0.2501 0.2830 -0.9260
vn 0.2364 -0.4218 -0.8753
vn 0.2524 0.2497 -0.9348
vn 0.2589 -0.1187 -0.9586
vn 0.0443 -0.9855 -0.1639
vn 0.2481 -0.3073 -0.9187
vn -0.2457 0.2830 -0.9271
vn -0.2323 -0.4218 -0.8764
vn -0.2481 0.2497 -0.9360
vn -0.2544 -0.1187 -0.9598
vn -0.0435 -0.9855 -0.1641
vn -0.2438 -0.3073 -0.9199
vn -0.2404 0.3454 -0.9071
vn -0.1121 0.8992 -0.4229
vn -0.2562 -0.0132 -0.9665
vn -0.1196 -0.9855 -0.1205
vn -0.6705 -0.3073 -0.6753
vn -0.6613 0.3454 -0.6659
vn -0.3082 0.8992 -0.3104
vn -0.7046 -0.0132 -0.7095
vn -0.6758 0.2830 -0.6806
vn -0.6389 -0.4218 -0.6434
vn -0.6823 0.2497 -0.6871
vn -0.6996 -0.1187 -0.7046
vn -0.9647 -0.0132 -0.2629
vn -0.9254 0.2830 -0.2522
vn -0.8748 -0.4218 -0.2384
vn -0.9342 0.2497 -0.2546
vn -0.9580 -0.1187 -0.2611
vn -0.1638 -0.9855 -0.0447
vn -0.9181 -0.3073 -0.2503
vn -0.9054 0.3454 -0.2468
vn -0.4221 0.8992 -0.1150
vn -0.9366 0.2497 0.2459
vn -0.9604 -0.1187 0.2521
vn -0.1642 -0.9855 0.0431
vn -0.9204 -0.3073 0.2416
vn -0.9077 0.3454 0.2383
vn -0.4231 0.8992 0.1111
vn -0.9671 -0.0132 0.2539
vn -0.9277 0.2830 0.2435
vn -0.8770 -0.4218 0.2302
vn -0.6675 0.3454 0.6597
vn -0.3111 0.8992 0.3075
vn -0.7112 -0.0132 0.7029
vn -0.6822 0.2830 0.6742
vn -0.6449 -0.4218 0.6374
vn -0.6887 0.2497 0.6807
vn -0.7062 -0.1187 0.6980
vn -0.1208 -0.9855 0.1194
vn -0.6768 -0.3073 0.6689
vn -0.2544 0.2830 0.9248
vn -0.2405 -0.4218 0.8742
vn -0.2568 0.2497 0.9336
vn -0.2634 -0.1187 0.9574
vn -0.0450 -0.9855 0.1637
vn -0.2524 -0.3073 0.9175
vn -0.2489 0.3454 0.9049
vn -0.1160 0.8992 0.4218
vn -0.2652 -0.0132 0.9641
vn 0.0427 -0.9855 0.1643
vn 0.2395 -0.3073 0.9210
vn 0.2361 0.3454 0.9083
vn 0.1101 0.8992 0.4234
vn 0.2516 -0.0132 0.9677
vn 0.2413 0.2830 0.9283
vn 0.2282 -0.4218 0.8775
vn 0.2437 0.2497 0.9372
vn 0.2499 -0.1187 0.9610
vn 0.7012 -0.0132 0.7128
vn 0.6726 0.2830 0.6838
vn 0.6358 -0.4218 0.6464
vn 0.6791 0.2497 0.6903
vn 0.6963 -0.1187 0.7079
vn 0.1191 -0.9855 0.1211
vn 0.6674 -0.3073 0.6784
vn 0.6581 0.3454 0.6690
vn 0.3068 0.8992 0.3119
vn 0.9568 -0.1187 0.2656
vn 0.1636 -0.9855 0.0454
vn 0.9169 -0.3073 0.2546
vn 0.9043 0.3454 0.2510
vn 0.4215 0.8992 0.1170
vn 0.9635 -0.0132 0.2675
vn 0.9242 0.2830 0.2566
vn 0.8736 -0.4218 0.2425
vn 0.9330 0.2497 0.2590
vn -0.0000 1.0000 -0.0000
vn -0.0000 -1.0000 -0.0000
vt 0.000000 0.000000
s 0
f 119/1/1 118/1/1 8/1/1 9/1/1
f 116/1/2 115/1/2 5/1/2 6/1/2
f 120/1/3 111/1/3 1/1/3 10/1/3
f 115/1/4 119/1/4 9/1/4 5/1/4
f 117/1/5 116/1/5 6/1/5 7/1/5
f 113/1/6 3/1/6 1/1/6 111/1/6
f 118/1/7 120/1/7 10/1/7 8/1/7
f 112/1/8 117/1/8 7/1/8 2/1/8
f 112/1/9 2/1/9 4/1/9 114/1/9
f 10/1/10 1/1/10 11/1/10 20/1/10
f 5/1/11 9/1/11 19/1/11 15/1/11
f 7/1/12 6/1/12 16/1/12 17/1/12
f 3/1/13 13/1/13 11/1/13 1/1/13
f 8/1/14 10/1/14 20/1/14 18/1/14
f 2/1/15 7/1/15 17/1/15 12/1/15
f 2/1/16 12/1/16 14/1/16 4/1/16
f 9/1/17 8/1/17 18/1/17 19/1/17
f 6/1/18 5/1/18 15/1/18 16/1/18
f 12/1/19 17/1/19 27/1/19 22/1/19
f 12/1/20 22/1/20 24/1/20 14/1/20
f 19/1/21 18/1/21 28/1/21 29/1/21
f 16/1/22 15/1/22 25/1/22 26/1/22
f 20/1/23 11/1/23 21/1/23 30/1/23
f 15/1/24 19/1/24 29/1/24 25/1/24
f 17/1/25 16/1/25 26/1/25 27/1/25
f 13/1/26 23/1/26 21/1/26 11/1/26
f 18/1/27 20/1/27 30/1/27 28/1/27
f 26/1/28 25/1/28 35/1/28 36/1/28
f 30/1/29 21/1/29 31/1/29 40/1/29
f 25/1/30 29/1/30 39/1/30 35/1/30
f 27/1/31 26/1/31 36/1/31 37/1/31
f 23/1/32 33/1/32 31/1/32 21/1/32
f 28/1/33 30/1/33 40/1/33 38/1/33
f 22/1/34 27/1/34 37/1/34 32/1/34
f 22/1/35 32/1/35 34/1/35 24/1/35
f 29/1/36 28/1/36 38/1/36 39/1/36
f 33/1/37 43/1/37 41/1/37 31/1/37
f 38/1/38 40/1/38 50/1/38 48/1/38
f 32/1/39 37/1/39 47/1/39 42/1/39
f 32/1/40 42/1/40 44/1/40 34/1/40
f 39/1/41 38/1/41 48/1/41 49/1/41
f 36/1/42 35/1/42 45/1/42 46/1/42
f 40/1/43 31/1/43 41/1/43 50/1/43
f 35/1/44 39/1/44 49/1/44 45/1/44
f 37/1/45 36/1/45 46/1/45 47/1/45
f 49/1/46 48/1/46 58/1/46 59/1/46
f 46/1/47 45/1/47 55/1/47 56/1/47
f 50/1/48 41/1/48 51/1/48 60/1/48
f 45/1/49 49/1/49 59/1/49 55/1/49
f 47/1/50 46/1/50 56/1/50 57/1/50
f 43/1/51 53/1/51 51/1/51 41/1/51
f 48/1/52 50/1/52 60/1/52 58/1/52
f 42/1/53 47/1/53 57/1/53 52/1/53
f 42/1/54 52/1/54 54/1/54 44/1/54
f 55/1/55 59/1/55 69/1/55 65/1/55
f 57/1/56 56/1/56 66/1/56 67/1/56
f 53/1/57 63/1/57 61/1/57 51/1/57
f 58/1/58 60/1/58 70/1/58 68/1/58
f 52/1/59 57/1/59 67/1/59 62/1/59
f 52/1/60 62/1/60 64/1/60 54/1/60
f 59/1/61 58/1/61 68/1/61 69/1/61
f 56/1/62 55/1/62 65/1/62 66/1/62
f 60/1/63 51/1/63 61/1/63 70/1/63
f 62/1/64 67/1/64 77/1/64 72/1/64
f 62/1/65 72/1/65 74/1/65 64/1/65
f 69/1/66 68/1/66 78/1/66 79/1/66
f 66/1/67 65/1/67 75/1/67 76/1/67
f 70/1/68 61/1/68 71/1/68 80/1/68
f 65/1/69 69/1/69 79/1/69 75/1/69
f 67/1/70 66/1/70 76/1/70 77/1/70
f 63/1/71 73/1/71 71/1/71 61/1/71
f 68/1/72 70/1/72 80/1/72 78/1/72
f 76/1/73 75/1/73 85/1/73 86/1/73
f 80/1/74 71/1/74 81/1/74 90/1/74
f 75/1/75 79/1/75 89/1/75 85/1/75
f 77/1/76 76/1/76 86/1/76 87/1/76
f 73/1/77 83/1/77 81/1/77 71/1/77
f 78/1/78 80/1/78 90/1/78 88/1/78
f 72/1/79 77/1/79 87/1/79 82/1/79
f 72/1/80 82/1/80 84/1/80 74/1/80
f 79/1/81 78/1/81 88/1/81 89/1/81
f 83/1/82 93/1/82 91/1/82 81/1/82
f 88/1/83 90/1/83 100/1/83 98/1/83
f 82/1/84 87/1/84 97/1/84 92/1/84
f 82/1/85 92/1/85 94/1/85 84/1/85
f 89/1/86 88/1/86 98/1/86 99/1/86
f 86/1/87 85/1/87 95/1/87 96/1/87
f 90/1/88 81/1/88 91/1/88 100/1/88
f 85/1/89 89/1/89 99/1/89 95/1/89
f 87/1/90 86/1/90 96/1/90 97/1/90
f 99/1/91 98/1/91 108/1/91 109/1/91
f 96/1/92 95/1/92 105/1/92 106/1/92
f 100/1/93 91/1/93 101/1/93 110/1/93
f 95/1/94 99/1/94 109/1/94 105/1/94
f 97/1/95 96/1/95 106/1/95 107/1/95
f 93/1/96 103/1/96 101/1/96 91/1/96
f 98/1/97 100/1/97 110/1/97 108/1/97
f 92/1/98 97/1/98 107/1/98 102/1/98
f 92/1/99 102/1/99 104/1/99 94/1/99
f 107/1/100 106/1/100 116/1/100 117/1/100
f 103/1/101 113/1/101 111/1/101 101/1/101
f 108/1/102 110/1/102 120/1/102 118/1/102
f 102/1/103 107/1/103 117/1/103 112/1/103
f 102/1/104 112/1/104 114/1/104 104/1/104
f 109/1/105 108/1/105 118/1/105 119/1/105
f 106/1/106 105/1/106 115/1/106 116/1/106
f 110/1/107 101/1/107 111/1/107 120/1/107
f 105/1/108 109/1/108 119/1/108 115/1/108
f 4/1/109 14/1/109 24/1/109 34/1/109 44/1/109 54/1/109 64/1/109 74/1/109 84/1/109 94/1/109 104/1/109 114/1/109
f 13/1/110 3/1/110 113/1/110 103/1/110 93/1/110 83/1/110 73/1/110 63/1/110 53/1/110 43/1/110 33/1/110 23/1/110
