# Blender 5.1.2
# www.blender.org
mtllib cup.mtl
o Cylinder
v 0.000000 -0.060000 -0.031889
v -0.000000 0.060000 -0.048303
v 0.006221 -0.060000 -0.031276
v 0.009423 0.060000 -0.047375
v 0.012203 -0.060000 -0.029461
v 0.018485 0.060000 -0.044626
v 0.017716 -0.060000 -0.026515
v 0.026836 0.060000 -0.040162
v 0.022549 -0.060000 -0.022549
v 0.034155 0.060000 -0.034155
v 0.026515 -0.060000 -0.017716
v 0.040162 0.060000 -0.026836
v 0.029461 -0.060000 -0.012203
v 0.044626 0.060000 -0.018485
v 0.031276 -0.060000 -0.006221
v 0.047375 0.060000 -0.009423
v 0.031889 -0.060000 0.000000
v 0.048303 0.060000 0.000000
v 0.031276 -0.060000 0.006221
v 0.047375 0.060000 0.009423
v 0.029461 -0.060000 0.012203
v 0.044626 0.060000 0.018485
v 0.026515 -0.060000 0.017716
v 0.040162 0.060000 0.026836
v 0.022549 -0.060000 0.022549
v 0.034155 0.060000 0.034155
v 0.017716 -0.060000 0.026515
v 0.026836 0.060000 0.040162
v 0.012203 -0.060000 0.029461
v 0.018485 0.060000 0.044626
v 0.006221 -0.060000 0.031276
v 0.009423 0.060000 0.047375
v 0.000000 -0.060000 0.031889
v -0.000000 0.060000 0.048303
v -0.006221 -0.060000 0.031276
v -0.009423 0.060000 0.047375
v -0.012203 -0.060000 0.029461
v -0.018485 0.060000 0.044626
v -0.017716 -0.060000 0.026515
v -0.026836 0.060000 0.040162
v -0.022549 -0.060000 0.022549
v -0.034155 0.060000 0.034155
v -0.026515 -0.060000 0.017716
v -0.040162 0.060000 0.026836
v -0.029461 -0.060000 0.012203
v -0.044626 0.060000 0.018485
v -0.031276 -0.060000 0.006221
v -0.047375 0.060000 0.009423
v -0.031889 -0.060000 0.000000
v -0.048303 0.060000 0.000000
v -0.031276 -0.060000 -0.006221
v -0.047375 0.060000 -0.009423
v -0.029461 -0.060000 -0.012203
v -0.044626 0.060000 -0.018485
v -0.026515 -0.060000 -0.017716
v -0.040162 0.060000 -0.026836
v -0.022549 -0.060000 -0.022549
v -0.034155 0.060000 -0.034155
v -0.017716 -0.060000 -0.026515
v -0.026836 0.060000 -0.040162
v -0.012203 -0.060000 -0.029461
v -0.018485 0.060000 -0.044626
v -0.006221 -0.060000 -0.031276
v -0.009423 0.060000 -0.047375
v 0.009755 0.060000 -0.049039
v 0.000000 0.060000 -0.050000
v 0.019134 0.060000 -0.046194
v 0.027779 0.060000 -0.041573
v 0.035355 0.060000 -0.035355
v 0.041573 0.060000 -0.027779
v 0.046194 0.060000 -0.019134
v 0.049039 0.060000 -0.009755
v 0.050000 0.060000 0.000000
v 0.049039 0.060000 0.009755
v 0.046194 0.060000 0.019134
v 0.041573 0.060000 0.027779
v 0.035355 0.060000 0.035355
v 0.027779 0.060000 0.041573
v 0.019134 0.060000 0.046194
v 0.009755 0.060000 0.049039
v 0.000000 0.060000 0.050000
v -0.009755 0.060000 0.049039
v -0.019134 0.060000 0.046194
v -0.027779 0.060000 0.041573
v -0.035355 0.060000 0.035355
v -0.041573 0.060000 0.027779
v -0.046194 0.060000 0.019134
v -0.049039 0.060000 0.009755
v -0.050000 0.060000 0.000000
v -0.049039 0.060000 -0.009755
v -0.046194 0.060000 -0.019134
v -0.041573 0.060000 -0.027779
v -0.035355 0.060000 -0.035355
v -0.027779 0.060000 -0.041573
v -0.019134 0.060000 -0.046194
v -0.009755 0.060000 -0.049039
v 0.006030 -0.056304 -0.030317
v -0.000000 -0.056304 -0.030911
v 0.011829 -0.056304 -0.028558
v 0.017173 -0.056304 -0.025702
v 0.021858 -0.056304 -0.021858
v 0.025702 -0.056304 -0.017173
v 0.028558 -0.056304 -0.011829
v 0.030317 -0.056304 -0.006030
v 0.030911 -0.056304 -0.000000
v 0.030317 -0.056304 0.006030
v 0.028558 -0.056304 0.011829
v 0.025702 -0.056304 0.017173
v 0.021858 -0.056304 0.021858
v 0.017173 -0.056304 0.025702
v 0.011829 -0.056304 0.028558
v 0.006030 -0.056304 0.030317
v -0.000000 -0.056304 0.030911
v -0.006030 -0.056304 0.030317
v -0.011829 -0.056304 0.028558
v -0.017173 -0.056304 0.025702
v -0.021858 -0.056304 0.021858
v -0.025702 -0.056304 0.017173
v -0.028558 -0.056304 0.011829
v -0.030317 -0.056304 0.006030
v -0.030911 -0.056304 -0.000000
v -0.030317 -0.056304 -0.006030
v -0.028558 -0.056304 -0.011829
v -0.025702 -0.056304 -0.017173
v -0.021858 -0.056304 -0.021858
v -0.017173 -0.056304 -0.025702
v -0.011829 -0.056304 -0.028558
v -0.006030 -0.056304 -0.030317
vn -0.0000 -0.7383 -0.6744
vn -0.0000 0.7782 0.6281
vn 0.1316 -0.7383 -0.6615
vn -0.1225 0.7782 0.6160
vn 0.2581 -0.7383 -0.6231
vn -0.2404 0.7782 0.5803
vn 0.3747 -0.7383 -0.5608
vn -0.3489 0.7782 0.5222
vn 0.4769 -0.7383 -0.4769
vn -0.4441 0.7782 0.4441
vn 0.5608 -0.7383 -0.3747
vn -0.5222 0.7782 0.3489
vn 0.6231 -0.7383 -0.2581
vn -0.5803 0.7782 0.2404
vn 0.6615 -0.7383 -0.1316
vn -0.6160 0.7782 0.1225
vn 0.6744 -0.7383 -0.0000
vn -0.6281 0.7782 -0.0000
vn 0.6615 -0.7383 0.1316
vn -0.6160 0.7782 -0.1225
vn 0.6231 -0.7383 0.2581
vn -0.5803 0.7782 -0.2404
vn 0.5608 -0.7383 0.3747
vn -0.5222 0.7782 -0.3489
vn 0.4769 -0.7383 0.4769
vn -0.4441 0.7782 -0.4441
vn 0.3747 -0.7383 0.5608
vn -0.3489 0.7782 -0.5222
vn 0.2581 -0.7383 0.6231
vn -0.2404 0.7782 -0.5803
vn 0.1316 -0.7383 0.6615
vn -0.1225 0.7782 -0.6160
vn -0.0000 -0.7383 0.6744
vn -0.0000 0.7782 -0.6281
vn -0.1316 -0.7383 0.6615
vn 0.1225 0.7782 -0.6160
vn -0.2581 -0.7383 0.6231
vn 0.2404 0.7782 -0.5803
vn -0.3747 -0.7383 0.5608
vn 0.3489 0.7782 -0.5222
vn -0.4769 -0.7383 0.4769
vn 0.4441 0.7782 -0.4441
vn -0.5608 -0.7383 0.3747
vn 0.5222 0.7782 -0.3489
vn -0.6231 -0.7383 0.2581
vn 0.5803 0.7782 -0.2404
vn -0.6615 -0.7383 0.1316
vn 0.6160 0.7782 -0.1225
vn -0.6744 -0.7383 -0.0000
vn 0.6281 0.7782 -0.0000
vn -0.6615 -0.7383 -0.1316
vn 0.6160 0.7782 0.1225
vn -0.6231 -0.7383 -0.2581
vn 0.5803 0.7782 0.2404
vn -0.5608 -0.7383 -0.3747
vn 0.5222 0.7782 0.3489
vn -0.4769 -0.7383 -0.4769
vn 0.4441 0.7782 0.4441
vn -0.3747 -0.7383 -0.5608
vn 0.3489 0.7782 0.5222
vn -0.2581 -0.7383 -0.6231
vn 0.2404 0.7782 0.5803
vn -0.1316 -0.7383 -0.6615
vn 0.1225 0.7782 0.6160
vn 0.1515 0.6297 -0.7619
vn -0.0000 0.6297 -0.7768
vn 0.2973 0.6297 -0.7177
vn 0.4316 0.6297 -0.6459
vn 0.5493 0.6297 -0.5493
vn 0.6459 0.6297 -0.4316
vn 0.7177 0.6297 -0.2973
vn 0.7619 0.6297 -0.1515
vn 0.7768 0.6297 -0.0000
vn 0.7619 0.6297 0.1515
vn 0.7177 0.6297 0.2973
vn 0.6459 0.6297 0.4316
vn 0.5493 0.6297 0.5493
vn 0.4316 0.6297 0.6459
vn 0.2973 0.6297 0.7177
vn 0.1515 0.6297 0.7619
vn -0.0000 0.6297 0.7768
vn -0.1515 0.6297 0.7619
vn -0.2973 0.6297 0.7177
vn -0.4316 0.6297 0.6459
vn -0.5493 0.6297 0.5493
vn -0.6459 0.6297 0.4316
vn -0.7177 0.6297 0.2973
vn -0.7619 0.6297 0.1515
vn -0.7768 0.6297 -0.0000
vn -0.7619 0.6297 -0.1515
vn -0.7177 0.6297 -0.2973
vn -0.6459 0.6297 -0.4316
vn -0.5493 0.6297 -0.5493
vn -0.4316 0.6297 -0.6459
vn -0.2973 0.6297 -0.7177
vn -0.1515 0.6297 -0.7619
vn -0.1317 0.7379 0.6620
vn -0.0000 0.7379 0.6749
vn -0.2583 0.7379 0.6236
vn -0.3750 0.7379 0.5612
vn -0.4772 0.7379 0.4772
vn -0.5612 0.7379 0.3750
vn -0.6236 0.7379 0.2583
vn -0.6620 0.7379 0.1317
vn -0.6749 0.7379 -0.0000
vn -0.6620 0.7379 -0.1317
vn -0.6236 0.7379 -0.2583
vn -0.5612 0.7379 -0.3750
vn -0.4772 0.7379 -0.4773
vn -0.3750 0.7379 -0.5612
vn -0.2583 0.7379 -0.6236
vn -0.1317 0.7379 -0.6620
vn -0.0000 0.7379 -0.6749
vn 0.1317 0.7379 -0.6620
vn 0.2583 0.7379 -0.6236
vn 0.3750 0.7379 -0.5612
vn 0.4772 0.7379 -0.4772
vn 0.5612 0.7379 -0.3750
vn 0.6236 0.7379 -0.2583
vn 0.6620 0.7379 -0.1317
vn 0.6749 0.7379 -0.0000
vn 0.6620 0.7379 0.1317
vn 0.6236 0.7379 0.2583
vn 0.5612 0.7379 0.3750
vn 0.4772 0.7379 0.4772
vn 0.3750 0.7379 0.5612
vn 0.2583 0.7379 0.6236
vn 0.1317 0.7379 0.6620
vt 1.000000 0.500000
vt 1.000000 1.000000
vt 0.968750 1.000000
vt 0.968750 0.500000
vt 0.937500 1.000000
vt 0.937500 0.500000
vt 0.906250 1.000000
vt 0.906250 0.500000
vt 0.875000 1.000000
vt 0.875000 0.500000
vt 0.843750 1.000000
vt 0.843750 0.500000
vt 0.812500 1.000000
vt 0.812500 0.500000
vt 0.781250 1.000000
vt 0.781250 0.500000
vt 0.750000 1.000000
vt 0.750000 0.500000
vt 0.718750 1.000000
vt 0.718750 0.500000
vt 0.687500 1.000000
vt 0.687500 0.500000
vt 0.656250 1.000000
vt 0.656250 0.500000
vt 0.625000 1.000000
vt 0.625000 0.500000
vt 0.593750 1.000000
vt 0.593750 0.500000
vt 0.562500 1.000000
vt 0.562500 0.500000
vt 0.531250 1.000000
vt 0.531250 0.500000
vt 0.500000 1.000000
vt 0.500000 0.500000
vt 0.468750 1.000000
vt 0.468750 0.500000
vt 0.437500 1.000000
vt 0.437500 0.500000
vt 0.406250 1.000000
vt 0.406250 0.500000
vt 0.375000 1.000000
vt 0.375000 0.500000
vt 0.343750 1.000000
vt 0.343750 0.500000
vt 0.312500 1.000000
vt 0.312500 0.500000
vt 0.281250 1.000000
vt 0.281250 0.500000
vt 0.250000 1.000000
vt 0.250000 0.500000
vt 0.218750 1.000000
vt 0.218750 0.500000
vt 0.187500 1.000000
vt 0.187500 0.500000
vt 0.156250 1.000000
vt 0.156250 0.500000
vt 0.125000 1.000000
vt 0.125000 0.500000
vt 0.093750 1.000000
vt 0.093750 0.500000
vt 0.062500 1.000000
vt 0.062500 0.500000
vt 0.026837 0.250000
vt 0.031125 0.206463
vt 0.031250 1.000000
vt 0.031250 0.500000
vt 0.000000 1.000000
vt 0.000000 0.500000
vt 0.750000 0.490000
vt 0.796822 0.485388
vt 0.841844 0.471731
vt 0.883337 0.449553
vt 0.919706 0.419706
vt 0.949553 0.383337
vt 0.971731 0.341844
vt 0.985388 0.296822
vt 0.990000 0.250000
vt 0.985388 0.203178
vt 0.971731 0.158156
vt 0.949553 0.116663
vt 0.919706 0.080294
vt 0.883337 0.050447
vt 0.841844 0.028269
vt 0.796822 0.014612
vt 0.750000 0.010000
vt 0.703178 0.014612
vt 0.658156 0.028269
vt 0.616663 0.050447
vt 0.580294 0.080294
vt 0.550447 0.116663
vt 0.528269 0.158156
vt 0.514612 0.203178
vt 0.510000 0.250000
vt 0.514612 0.296822
vt 0.528269 0.341844
vt 0.550447 0.383337
vt 0.580294 0.419706
vt 0.616663 0.449553
vt 0.658156 0.471731
vt 0.703178 0.485388
vt 0.250000 0.473162
vt 0.293537 0.468874
vt 0.296822 0.485388
vt 0.250000 0.490000
vt 0.335401 0.456175
vt 0.341844 0.471731
vt 0.373982 0.435553
vt 0.383337 0.449553
vt 0.407800 0.407800
vt 0.419706 0.419706
vt 0.435553 0.373982
vt 0.449553 0.383337
vt 0.456175 0.335401
vt 0.471731 0.341844
vt 0.468874 0.293537
vt 0.485388 0.296822
vt 0.473163 0.250000
vt 0.490000 0.250000
vt 0.468875 0.206463
vt 0.485388 0.203178
vt 0.456175 0.164599
vt 0.471731 0.158156
vt 0.435553 0.126018
vt 0.449553 0.116663
vt 0.407800 0.092200
vt 0.419706 0.080294
vt 0.373982 0.064447
vt 0.383337 0.050447
vt 0.335401 0.043825
vt 0.341844 0.028269
vt 0.293537 0.031125
vt 0.296822 0.014612
vt 0.250000 0.026837
vt 0.250000 0.010000
vt 0.206463 0.031126
vt 0.203178 0.014612
vt 0.164599 0.043825
vt 0.158156 0.028269
vt 0.126018 0.064447
vt 0.116663 0.050447
vt 0.092200 0.092200
vt 0.080294 0.080294
vt 0.064447 0.126018
vt 0.050447 0.116663
vt 0.043825 0.164599
vt 0.028269 0.158156
vt 0.014612 0.203178
vt 0.010000 0.250000
vt 0.031125 0.293537
vt 0.014612 0.296822
vt 0.043825 0.335401
vt 0.028269 0.341844
vt 0.064447 0.373982
vt 0.050447 0.383337
vt 0.092200 0.407800
vt 0.080294 0.419706
vt 0.126018 0.435553
vt 0.116663 0.449553
vt 0.164599 0.456175
vt 0.158156 0.471731
vt 0.206463 0.468874
vt 0.203178 0.485388
s 1
f 1/1/1 66/2/66 65/3/65 3/4/3
f 3/4/3 65/3/65 67/5/67 5/6/5
f 5/6/5 67/5/67 68/7/68 7/8/7
f 7/8/7 68/7/68 69/9/69 9/10/9
f 9/10/9 69/9/69 70/11/70 11/12/11
f 11/12/11 70/11/70 71/13/71 13/14/13
f 13/14/13 71/13/71 72/15/72 15/16/15
f 15/16/15 72/15/72 73/17/73 17/18/17
f 17/18/17 73/17/73 74/19/74 19/20/19
f 19/20/19 74/19/74 75/21/75 21/22/21
f 21/22/21 75/21/75 76/23/76 23/24/23
f 23/24/23 76/23/76 77/25/77 25/26/25
f 25/26/25 77/25/77 78/27/78 27/28/27
f 27/28/27 78/27/78 79/29/79 29/30/29
f 29/30/29 79/29/79 80/31/80 31/32/31
f 31/32/31 80/31/80 81/33/81 33/34/33
f 33/34/33 81/33/81 82/35/82 35/36/35
f 35/36/35 82/35/82 83/37/83 37/38/37
f 37/38/37 83/37/83 84/39/84 39/40/39
f 39/40/39 84/39/84 85/41/85 41/42/41
f 41/42/41 85/41/85 86/43/86 43/44/43
f 43/44/43 86/43/86 87/45/87 45/46/45
f 45/46/45 87/45/87 88/47/88 47/48/47
f 47/48/47 88/47/88 89/49/89 49/50/49
f 49/50/49 89/49/89 90/51/90 51/52/51
f 51/52/51 90/51/90 91/53/91 53/54/53
f 53/54/53 91/53/91 92/55/92 55/56/55
f 55/56/55 92/55/92 93/57/93 57/58/57
f 57/58/57 93/57/93 94/59/94 59/60/59
f 59/60/59 94/59/94 95/61/95 61/62/61
f 50/63/50 48/64/48 120/64/120 121/63/121
f 61/62/61 95/61/95 96/65/96 63/66/63
f 63/66/63 96/65/96 66/67/66 1/68/1
f 1/69/1 3/70/3 5/71/5 7/72/7 9/73/9 11/74/11 13/75/13 15/76/15 17/77/17 19/78/19 21/79/21 23/80/23 25/81/25 27/82/27 29/83/29 31/84/31 33/85/33 35/86/35 37/87/37 39/88/39 41/89/41 43/90/43 45/91/45 47/92/47 49/93/49 51/94/51 53/95/53 55/96/55 57/97/57 59/98/59 61/99/61 63/100/63
f 2/101/2 4/102/4 65/103/65 66/104/66
f 4/102/4 6/105/6 67/106/67 65/103/65
f 6/105/6 8/107/8 68/108/68 67/106/67
f 8/107/8 10/109/10 69/110/69 68/108/68
f 10/109/10 12/111/12 70/112/70 69/110/69
f 12/111/12 14/113/14 71/114/71 70/112/70
f 14/113/14 16/115/16 72/116/72 71/114/71
f 16/115/16 18/117/18 73/118/73 72/116/72
f 18/117/18 20/119/20 74/120/74 73/118/73
f 20/119/20 22/121/22 75/122/75 74/120/74
f 22/121/22 24/123/24 76/124/76 75/122/75
f 24/123/24 26/125/26 77/126/77 76/124/76
f 26/125/26 28/127/28 78/128/78 77/126/77
f 28/127/28 30/129/30 79/130/79 78/128/78
f 30/129/30 32/131/32 80/132/80 79/130/79
f 32/131/32 34/133/34 81/134/81 80/132/80
f 34/133/34 36/135/36 82/136/82 81/134/81
f 36/135/36 38/137/38 83/138/83 82/136/82
f 38/137/38 40/139/40 84/140/84 83/138/83
f 40/139/40 42/141/42 85/142/85 84/140/84
f 42/141/42 44/143/44 86/144/86 85/142/85
f 44/143/44 46/145/46 87/146/87 86/144/86
f 46/145/46 48/64/48 88/147/88 87/146/87
f 48/64/48 50/63/50 89/148/89 88/147/88
f 50/63/50 52/149/52 90/150/90 89/148/89
f 52/149/52 54/151/54 91/152/91 90/150/90
f 54/151/54 56/153/56 92/154/92 91/152/91
f 56/153/56 58/155/58 93/156/93 92/154/92
f 58/155/58 60/157/60 94/158/94 93/156/93
f 60/157/60 62/159/62 95/160/95 94/158/94
f 62/159/62 64/161/64 96/162/96 95/160/95
f 64/161/64 2/101/2 66/104/66 96/162/96
f 97/102/97 98/101/98 128/161/128 127/159/127 126/157/126 125/155/125 124/153/124 123/151/123 122/149/122 121/63/121 120/64/120 119/145/119 118/143/118 117/141/117 116/139/116 115/137/115 114/135/114 113/133/113 112/131/112 111/129/111 110/127/110 109/125/109 108/123/108 107/121/107 106/119/106 105/117/105 104/115/104 103/113/103 102/111/102 101/109/101 100/107/100 99/105/99
f 24/123/24 22/121/22 107/121/107 108/123/108
f 52/149/52 50/63/50 121/63/121 122/149/122
f 26/125/26 24/123/24 108/123/108 109/125/109
f 54/151/54 52/149/52 122/149/122 123/151/123
f 28/127/28 26/125/26 109/125/109 110/127/110
f 56/153/56 54/151/54 123/151/123 124/153/124
f 30/129/30 28/127/28 110/127/110 111/129/111
f 4/102/4 2/101/2 98/101/98 97/102/97
f 58/155/58 56/153/56 124/153/124 125/155/125
f 32/131/32 30/129/30 111/129/111 112/131/112
f 6/105/6 4/102/4 97/102/97 99/105/99
f 60/157/60 58/155/58 125/155/125 126/157/126
f 34/133/34 32/131/32 112/131/112 113/133/113
f 8/107/8 6/105/6 99/105/99 100/107/100
f 62/159/62 60/157/60 126/157/126 127/159/127
f 36/135/36 34/133/34 113/133/113 114/135/114
f 10/109/10 8/107/8 100/107/100 101/109/101
f 64/161/64 62/159/62 127/159/127 128/161/128
f 38/137/38 36/135/36 114/135/114 115/137/115
f 12/111/12 10/109/10 101/109/101 102/111/102
f 2/101/2 64/161/64 128/161/128 98/101/98
f 40/139/40 38/137/38 115/137/115 116/139/116
f 14/113/14 12/111/12 102/111/102 103/113/103
f 42/141/42 40/139/40 116/139/116 117/141/117
f 16/115/16 14/113/14 103/113/103 104/115/104
f 44/143/44 42/141/42 117/141/117 118/143/118
f 18/117/18 16/115/16 104/115/104 105/117/105
f 46/145/46 44/143/44 118/143/118 119/145/119
f 20/119/20 18/117/18 105/117/105 106/119/106
f 48/64/48 46/145/46 119/145/119 120/64/120
f 22/121/22 20/119/20 106/119/106 107/121/107
